HIERARCHY
ROOT Hips
{
  OFFSET -69.4423 88.0299 51.6846
  CHANNELS 6 Xposition Yposition Zposition Zrotation Xrotation Yrotation
  JOINT Spine
  {
    OFFSET 12.0259 -0.162853 1.93176e-005
    CHANNELS 3 Zrotation Xrotation Yrotation
    JOINT Spine1
    {
      OFFSET 15.3169 -0.0121909 0
      CHANNELS 3 Zrotation Xrotation Yrotation
      JOINT Spine2
      {
        OFFSET 15.3176 -0.0121922 0
        CHANNELS 3 Zrotation Xrotation Yrotation
        JOINT Neck
        {
          OFFSET 19.9142 1.56236 0
          CHANNELS 3 Zrotation Xrotation Yrotation
          JOINT Head
          {
            OFFSET 6.92646 0 0
            CHANNELS 3 Zrotation Xrotation Yrotation
            End Site
            {
              OFFSET 20.7666 0 0
            }
          }
          JOINT LeftShoulder
          {
            OFFSET -4.94072 -1.14703 8.14416
            CHANNELS 3 Zrotation Xrotation Yrotation
            JOINT LeftArm
            {
              OFFSET 14.108 0 -2.74767e-005
              CHANNELS 3 Zrotation Xrotation Yrotation
              JOINT LeftForeArm
              {
                OFFSET 28.5802 -0.0783412 -0.0284884
                CHANNELS 3 Zrotation Xrotation Yrotation
                JOINT LeftHand
                {
                  OFFSET 27.092 0 0
                  CHANNELS 3 Zrotation Xrotation Yrotation
                  End Site
                  {
                    OFFSET 9.55928 -0.186424 0.145352
                  }
                }
              }
            }
          }
          JOINT RightShoulder
          {
            OFFSET -7.15748 -1.33027 -6.24935
            CHANNELS 3 Zrotation Xrotation Yrotation
            JOINT RightArm
            {
              OFFSET 14.108 0 1.82997e-005
              CHANNELS 3 Zrotation Xrotation Yrotation
              JOINT RightForeArm
              {
                OFFSET 28.5802 -0.0707221 2.30684e-005
                CHANNELS 3 Zrotation Xrotation Yrotation
                JOINT RightHand
                {
                  OFFSET 27.092 0 -1.30073e-005
                  CHANNELS 3 Zrotation Xrotation Yrotation
                  End Site
                  {
                    OFFSET 9.55929 -0.186417 -0.145354
                  }
                }
              }
            }
          }
        }
      }
    }
  }
  JOINT LeftUpLeg
  {
    OFFSET 0.00499725 -0.534999 8.837
    CHANNELS 3 Zrotation Xrotation Yrotation
    JOINT LeftLeg
    {
      OFFSET 39.9035 -0.00124594 0.000252775
      CHANNELS 3 Zrotation Xrotation Yrotation
      JOINT LeftFoot
      {
        OFFSET 39.6689 0 0
        CHANNELS 3 Zrotation Xrotation Yrotation
        JOINT LeftToe
        {
          OFFSET 10.1624 13.6296 0
          CHANNELS 3 Zrotation Xrotation Yrotation
          End Site
          {
            OFFSET 8.38147 0 0
          }
        }
      }
    }
  }
  JOINT RightUpLeg
  {
    OFFSET 0.00499725 -0.535 -8.837
    CHANNELS 3 Zrotation Xrotation Yrotation
    JOINT RightLeg
    {
      OFFSET 39.9036 -0.000268477 0.000106433
      CHANNELS 3 Zrotation Xrotation Yrotation
      JOINT RightFoot
      {
        OFFSET 39.6689 1.17892e-005 0
        CHANNELS 3 Zrotation Xrotation Yrotation
        JOINT RightToe
        {
          OFFSET 10.1624 13.6296 0
          CHANNELS 3 Zrotation Xrotation Yrotation
          End Site
          {
            OFFSET 8.38147 0 0
          }
        }
      }
    }
  }
}
MOTION
Frames:	8
Frame Time:	0.0333333
84.9514 88.3715 -55.6002 93.2412 13.0975 1.15902 0.258841 0.689854 0.846889 0.507493 1.38394 1.69097 0.50749 1.38393 1.69096 -22.3489 3.74238 -6.62464 39.2711 4.74366 1.34689 -159.09 2.0752 -91.2262 -6.67485 5.25751 87.9293 -22.0544 2.36004 -14.3135 17.647 -85.9685 19.7891 -158.994 0.479169 76.9053 -1.77862 -6.04155 -82.9294 -23.1867 -2.79013 14.2805 2.04717 81.9864 -1.88278 -9.76636 -4.58679 179.288 -22.708 0.944903 -1.25489 4.18319 1.67409 0.626122 90 7.95139e-016 4.77083e-015 -12.2419 -3.96356 -179.319 -34.5102 -0.573455 0.195504 9.28612 6.49049 -0.951259 90 -5.06901e-015 -4.77083e-015 
84.9208 88.3796 -55.6319 93.4219 13.2942 1.17495 0.247542 0.594846 0.807173 0.486724 1.19362 1.61206 0.486716 1.19361 1.61206 -21.77 3.81693 -7.72796 38.2088 6.0094 3.4102 -159.642 1.70432 -92.2574 -7.79393 5.26491 87.8645 -22.4735 2.42628 -14.5443 20.3614 -86.5882 22.5697 -159.55 0.101951 75.9365 -3.84329 -7.0317 -83.5288 -23.6997 -2.90418 14.5721 2.89073 83.9705 -2.76809 -9.9193 -4.61798 179.258 -22.5743 0.930252 -1.27021 4.18804 1.67623 0.629237 90 1.09332e-015 2.38542e-015 -12.5291 -3.84251 -179.304 -34.6919 -0.582722 0.191729 9.34553 6.78296 -0.946421 90 4.27387e-015 5.56597e-015 
84.903 88.4086 -55.7415 93.3886 13.4685 0.92033 0.247023 0.543087 0.882221 0.490117 1.0904 1.76234 0.490119 1.09041 1.76233 -21.0159 3.77874 -8.20379 37.0707 6.20986 3.95172 -160.368 1.61158 -92.6674 -9.35867 5.00812 87.7229 -22.3152 2.38718 -14.4777 33.3348 -87.8486 35.5793 -160.302 -0.0383196 75.5305 -4.60347 -7.55768 -83.5775 -24.0897 -2.98994 14.7856 3.16719 84.7171 -3.0727 -9.93921 -4.59322 179.636 -22.7095 0.927026 -1.24891 4.29588 2.11351 0.661705 90 -2.06736e-014 -2.14687e-014 -12.3404 -3.76764 -178.897 -34.4172 -0.577888 0.18303 9.27594 6.93085 -0.943547 90 -2.76311e-014 -3.02153e-014 
84.8377 88.4008 -55.8049 93.3857 13.5362 0.693446 0.24434 0.536427 0.912383 0.485072 1.07845 1.82278 0.485061 1.07849 1.82277 -20.6292 3.7092 -8.17375 36.5591 6.10944 3.94784 -160.757 1.62794 -92.6287 -9.72286 4.86508 87.843 -22.713 2.45267 -14.7034 26.5361 -87.5394 28.796 -160.69 -0.0413494 75.6015 -4.39686 -7.53268 -83.7568 -24.2221 -3.01594 14.8484 2.80605 84.3364 -2.70522 -10.1718 -5.0462 179.826 -23.1142 0.944047 -1.25927 4.30242 1.81708 0.648367 90 4.57205e-015 3.18055e-015 -12.1668 -3.71701 -178.584 -34.1762 -0.577611 0.180811 9.16856 7.18332 -0.919981 90 -1.3418e-014 -1.43125e-014 
84.7322 88.3866 -55.8029 93.2821 13.2881 0.850101 0.229174 0.532322 0.910941 0.44986 1.06863 1.82002 0.449848 1.06859 1.82001 -20.5014 3.79424 -8.24976 36.7375 6.21508 3.82593 -160.887 1.71431 -92.7536 -10.0293 4.96987 88.1233 -23.2873 2.55842 -15.0129 19.2971 -86.9531 21.7181 -160.786 0.0275717 75.4835 -2.26384 -6.5213 -83.5525 -23.4559 -2.84269 14.4233 1.82069 81.6932 -1.66704 -9.76543 -5.22481 179.643 -22.8675 0.943376 -1.25959 4.32 1.22667 0.61504 90 -2.0276e-014 -1.90833e-014 -12.0542 -3.75737 -178.773 -34.2509 -0.577563 0.182978 9.29846 6.77316 -0.95074 90 -1.19519e-014 -9.54166e-015 
84.7226 88.431 -55.9486 93.3109 13.2122 0.614649 0.188653 0.500209 0.943869 0.369061 1.00394 1.88635 0.36905 1.00393 1.88635 -20.1978 3.84015 -8.47192 36.5846 6.43128 4.04444 -161.177 1.73218 -92.9936 -10.1726 4.9392 88.2605 -23.4165 2.57777 -15.0934 23.3716 -87.1535 25.5898 -161.109 0.02581 75.3134 -6.09024 -8.03859 -83.8537 -24.7439 -3.13947 15.1488 3.23713 84.9591 -3.14487 -9.89171 -5.69204 179.918 -22.9752 0.949167 -1.27414 4.04174 0.941417 0.589343 90 -4.27387e-015 -5.56597e-015 -12.0327 -3.23612 -178.368 -34.1143 -0.577727 0.187437 9.32167 6.62884 -0.960867 90 3.90115e-015 6.36111e-015 
84.6707 88.3886 -55.9651 93.2585 12.8102 0.683653 0.206251 0.574728 0.898843 0.403461 1.1533 1.7959 0.403459 1.15328 1.79589 -20.0521 3.80243 -8.66553 36.3905 6.50251 4.36168 -161.323 1.64927 -93.1537 -10.7083 4.7626 88.2863 -23.5735 2.60239 -15.1926 25.2833 -87.4391 27.5076 -161.247 -0.0936011 75.1639 -5.8566 -7.41903 -83.9866 -24.8243 -3.15595 15.1862 2.91409 84.5807 -2.81639 -9.8559 -4.81084 -179.977 -23.2088 0.948929 -1.25883 4.40386 1.4974 0.63773 90 5.1684e-015 4.77083e-015 -11.9139 -3.21924 -178.459 -34.0799 -0.578084 0.192095 9.34767 6.21075 -0.973297 90 -2.75814e-014 -2.70347e-014 
84.5701 88.3639 -56.004 93.2785 12.1092 0.62848 0.238436 0.68834 0.851212 0.466663 1.38063 1.69989 0.466664 1.38057 1.69989 -20.5531 3.88659 -7.97757 37.1749 6.33229 3.56667 -160.827 1.93378 -92.5555 -11.1229 4.64842 88.235 -23.7767 2.63799 -15.3027 36.4846 -87.9834 38.6026 -160.722 0.174452 75.7522 -4.74175 -5.97143 -84.0365 -24.359 -3.04398 14.921 2.12237 82.914 -1.98662 -9.78954 -5.4389 179.969 -23.4568 0.94771 -1.25351 4.41001 0.509129 0.584313 90 -3.94091e-014 -3.81667e-014 -11.8312 -3.10737 -178.399 -33.9282 -0.578618 0.194857 9.32049 5.8141 -0.977558 90 -4.2366e-015 -7.95139e-016 
